<svg xmlns="http://www.w3.org/2000/svg" width="515" height="230.579"><defs><filter id="a" x="0" y="0" width="182.012" height="230.579" filterUnits="userSpaceOnUse"><feOffset dy="3"/><feGaussianBlur stdDeviation="4" result="blur"/><feFlood flood-opacity=".502"/><feComposite operator="in" in2="blur"/><feComposite in="SourceGraphic"/></filter><filter id="b" x="176.207" y="1.095" width="164.091" height="229.21" filterUnits="userSpaceOnUse"><feOffset dy="3"/><feGaussianBlur stdDeviation="4" result="blur-2"/><feFlood flood-opacity=".502"/><feComposite operator="in" in2="blur-2"/><feComposite in="SourceGraphic"/></filter><filter id="c" x="332.988" y="0" width="182.012" height="230.579" filterUnits="userSpaceOnUse"><feOffset dy="3"/><feGaussianBlur stdDeviation="4" result="blur-3"/><feFlood flood-opacity=".502"/><feComposite operator="in" in2="blur-3"/><feComposite in="SourceGraphic"/></filter></defs><g data-name="Group 136"><g filter="url(#a)"><path data-name="Path 131" d="M106.669 194.782v-25.446H37.992q-13 0-19.495-5.883t-6.5-16.006a15.525 15.525 0 01.957-5.268 27.22 27.22 0 012.874-5.609q1.914-2.941 3.967-5.678t5.063-6.7l72.508-97a110.379 110.379 0 0111.7-13.886 15.5 15.5 0 0111.012-4.309q20.794 0 20.8 23.8v105.895h5.883q10.534 0 16.9 2.873t6.362 12.586q0 7.935-5.2 11.56t-15.6 3.626h-8.346v25.446q0 10.536-4.651 15.665t-12.449 5.13a15.84 15.84 0 01-12.382-5.267q-4.725-5.267-4.726-15.529zm-58.826-56.09h58.826V59.206z" fill="#4d4d4d"/></g><g filter="url(#b)"><path data-name="Path 132" d="M328.294 113.798a234.588 234.588 0 01-2.737 38.579 89.849 89.849 0 01-10.123 29.276 67.25 67.25 0 01-24.078 24.9 65.4 65.4 0 01-70.114-3.01q-16.488-11.764-24.831-32.56a120.9 120.9 0 01-6.224-25.1 208.521 208.521 0 01-1.985-29.755 285.51 285.51 0 012.19-37.211 122.73 122.73 0 016.84-28.456q8.069-19.7 23.462-30.03t36.732-10.328a68.545 68.545 0 0125.583 4.582 58.39 58.39 0 0120.179 13.408 76.687 76.687 0 0114.705 21.821q10.399 22.567 10.401 63.884zm-37.484-2.737q0-25.035-3.011-40.973t-10.123-24.079q-7.115-8.137-19.7-8.139-18.058 0-25.1 18.195t-7.046 56.091q0 25.722 3.011 42.137t10.119 24.827q7.114 8.413 19.291 8.413 12.585 0 19.7-8.755t9.986-25.036q2.872-16.275 2.873-42.681z" fill="#4d4d4d"/></g><g filter="url(#c)"><path data-name="Path 133" d="M439.657 194.782v-25.446h-68.676q-13 0-19.5-5.883t-6.5-16.006a15.479 15.479 0 01.958-5.268 27.14 27.14 0 012.873-5.609q1.914-2.941 3.967-5.678t5.063-6.7l72.507-97a110.481 110.481 0 0111.7-13.886 15.506 15.506 0 0111.013-4.309q20.793 0 20.795 23.8v105.895h5.883q10.533 0 16.9 2.873t6.362 12.586q0 7.935-5.2 11.56t-15.6 3.626h-8.346v25.446q0 10.536-4.651 15.665t-12.45 5.13a15.838 15.838 0 01-12.381-5.267q-4.716-5.267-4.717-15.529zm-58.827-56.09h58.827V59.206z" fill="#4d4d4d"/></g></g></svg>