<svg width="394" height="512" xmlns="http://www.w3.org/2000/svg"><g><path d="M335.77 295.17V194c0-62.75-41.9-115.83-99.17-132.93V12c0-6.627-5.373-12-12-12h-55.23c-6.627 0-12 5.373-12 12v49.1c-57.26 17.1-99.16 70.18-99.16 132.93v101.13A122.4 122.4 0 0 0 .85 398.73c0 6.627 5.373 12 12 12h368.32c6.627 0 12-5.373 12-12a122.41 122.41 0 0 0-57.4-103.56zm-94.69 91.58H25.53c6.113-49.382 48.041-86.483 97.8-86.54h147.34c49.759.057 91.687 37.158 97.8 86.54H241.08zM286.66 423.59c-6.627 0-12 5.373-12 12C274.68 464.5 239.84 488 197 488c-42.84 0-77.66-23.54-77.66-52.48 0-6.627-5.373-12-12-12s-12 5.373-12 12C95.38 477.7 141 512 197 512s101.63-34.3 101.63-76.44c-.016-6.604-5.366-11.954-11.97-11.97z"/></g></svg>