<svg id="圖層_1" data-name="圖層 1" xmlns="http://www.w3.org/2000/svg" viewBox="0 0 511.09 328.66"><defs><style>.cls-1{fill:#000000;}</style></defs><title>工作區域 9</title><path class="cls-1" d="M510.43,267.07,475,208a4.31,4.31,0,0,0-1.15-1.26L354.25,2.64A4.64,4.64,0,0,0,351.36.51l-.09,0a4.4,4.4,0,0,0-1.59-.3H163.16a4.53,4.53,0,0,0-2.34-.07,4.59,4.59,0,0,0-2.9,2.13L37.53,205.9a4.45,4.45,0,0,0-1.15,1.26L.67,266a4.55,4.55,0,0,0,1.41,6.2L56.9,308a4.53,4.53,0,0,0,3.55.62,3,3,0,0,0,.46-.15,4,4,0,0,0,.54-.21,3.12,3.12,0,0,0,.45-.28,3.8,3.8,0,0,0,.44-.31,3.47,3.47,0,0,0,.42-.43,3.74,3.74,0,0,0,.3-.33l40.48-55.85a4.67,4.67,0,0,0,.73-1.62l2-2.82,2.48,4.29L94.46,323.19a4.62,4.62,0,0,0,1,3.8A4.56,4.56,0,0,0,99,328.66H228.57a4.63,4.63,0,0,0,3.28-1.39,4.57,4.57,0,0,0,1.29-3.3l-1.28-51.73h47.71L278.29,324a4.58,4.58,0,0,0,4.58,4.69H412.49A4.56,4.56,0,0,0,416,327a4.62,4.62,0,0,0,1-3.8L402.67,250.9l2.17-3.76,2.06,2.9a4.34,4.34,0,0,0,.73,1.62l40.21,56a4.06,4.06,0,0,0,.45.5,2.87,2.87,0,0,0,.29.31,4.81,4.81,0,0,0,.55.38,3.48,3.48,0,0,0,.36.22,3.9,3.9,0,0,0,.61.23,2.23,2.23,0,0,0,.39.13,4.64,4.64,0,0,0,3.55-.6L509,273.27A4.55,4.55,0,0,0,510.43,267.07ZM93.31,249.57,58.25,298,10.79,267l31-51.06ZM98,223.09a4.57,4.57,0,0,0-1.67,6.25l5,8.57-2.9,4L46.75,208.28,152.65,29.14,116.37,212.47Zm61-24.64,12.85,22.26L119.38,251l-12.85-22.26Zm-43,63a3.27,3.27,0,0,0,.53.17,4.58,4.58,0,0,0,3.46-.46l60.37-34.85a4.53,4.53,0,0,0,2.13-2.77,4.59,4.59,0,0,0-.46-3.48l-17.42-30.18a4.64,4.64,0,0,0-2.79-2.13,4.5,4.5,0,0,0-3.46.46L126.9,206.4l39-197.06h46.31l-36,55a4.63,4.63,0,0,0-.49,4l45.13,130.87a.78.78,0,0,0,0,.14l3,120.17H104.52Zm69.11-194,31.33-47.87,3.48,148.84Zm106.4,101L295,19.58l31.33,47.87Zm48.11,52.29,12.85-22.26,52.44,30.27L392.06,251Zm-49.09-21.38s0-.08.05-.13L335.71,68.32a4.6,4.6,0,0,0-.5-4l-36-55h46.31l39,197.06-31.45-18.16a4.57,4.57,0,0,0-6.25,1.67l-17.42,30.18a4.57,4.57,0,0,0,1.67,6.25l60.37,34.85a4.61,4.61,0,0,0,3.47.46,3.81,3.81,0,0,0,.51-.17l11.49,58H287.56Zm124.59,30a4.57,4.57,0,0,0-1.67-6.25l-18.38-10.62L358.59,28.17l106,181-51.75,33.47-3-4.16Zm-129-220L279.8,263.09H231.64L225.36,9.34ZM500.31,268l-47.58,30.77-34.87-48.52,51.69-33.42Z"/></svg>