<svg id="圖層_1" data-name="圖層 1" xmlns="http://www.w3.org/2000/svg" viewBox="0 0 500 500"><title>icon_comingsoon</title><path d="M259.48,182.13l-14.93,0h-.1L179.79,182l0,12.57,29.82.05a54.68,54.68,0,0,0-15.18,20.58,53.61,53.61,0,0,0,10.9,59.08L244,314.37l-38.82,40a53.62,53.62,0,0,0-11.09,59A54.63,54.63,0,0,0,209.19,434l-29.82,0,0,12.56,64.74.11h0l14.93,0h.11l61.06.1,0-12.57-26.23,0a54.57,54.57,0,0,0,15.18-20.58,53.63,53.63,0,0,0-10.89-59.08l-38.68-40.1,38.81-40a53.61,53.61,0,0,0,11.09-59,54.65,54.65,0,0,0-15.1-20.63l26.22,0,0-12.56-61.15-.1Zm29.76,181.09a41.83,41.83,0,0,1-30.09,70.88l-15,0a41.84,41.84,0,0,1-29.92-71l37.59-38.71Zm8.7-143a41.26,41.26,0,0,1-8.53,45.41l-37.6,38.72-37.46-38.84a41.84,41.84,0,0,1,30.1-70.89l15,0A41.25,41.25,0,0,1,297.94,220.26Z"/><path d="M68.13,259a22.53,22.53,0,0,0,17.1-5.33,22.81,22.81,0,0,0,8.29-16,24.8,24.8,0,0,0-2.19-12.61l-8.24-.76a34.25,34.25,0,0,1,2.11,3.4,17.53,17.53,0,0,1,1.32,3.07,14.47,14.47,0,0,1,.61,6.23,15.93,15.93,0,0,1-6,11.34,16.53,16.53,0,0,1-12.46,3.71,17,17,0,0,1-11.76-5.92A15.69,15.69,0,0,1,53,234q.59-6.33,6.07-11.8L51,221.46A23.34,23.34,0,0,0,46.59,233a22.87,22.87,0,0,0,6.64,19A23.31,23.31,0,0,0,68.13,259Z"/><path d="M74.11,207.27q10,4.35,19.27,0a24,24,0,0,0,12.39-30.38A22.31,22.31,0,0,0,93.31,163.8,23.78,23.78,0,0,0,62.2,176.05a23.17,23.17,0,0,0-.4,18.19A22.26,22.26,0,0,0,74.11,207.27Zm-6-28.57a16.06,16.06,0,0,1,9.31-9,17.64,17.64,0,0,1,22.32,9.78A16.87,16.87,0,0,1,77,201a16.41,16.41,0,0,1-9.12-9.3A16.2,16.2,0,0,1,68.08,178.7Z"/><polygon points="127.36 137.19 91.22 123.54 119.37 164.64 124.34 159.58 108.18 136.83 138.43 148.24 126.8 117.93 149.45 134.04 154.38 129.03 113.5 100.89 127.36 137.19"/><rect x="154.29" y="79.11" width="6.86" height="45.46" transform="translate(-29.89 94.64) rotate(-30.65)"/><polygon points="184.71 111.98 191.28 109.99 182.02 79.54 223.8 103 209.77 56.85 203.21 58.85 212.4 89.08 170.59 65.53 184.71 111.98"/><path d="M257.85,100.38A20.56,20.56,0,0,0,274.25,94a19.23,19.23,0,0,0,4.26-6.65,31,31,0,0,0,1.6-9l.07-1.51L261.41,76l-.28,6.45,11.33.49a12.22,12.22,0,0,1-4.86,8,13.74,13.74,0,0,1-9.24,3,17.07,17.07,0,0,1-15.73-17.77,16.61,16.61,0,0,1,5.41-12,16.28,16.28,0,0,1,12.3-4.44q8,.34,13.3,8l5.09-4.47a28.73,28.73,0,0,0-8.37-7.43,23.69,23.69,0,0,0-34.62,20,22.87,22.87,0,0,0,6.08,16.89A22.12,22.12,0,0,0,257.85,100.38Z"/><path d="M345.66,76.67a14.11,14.11,0,0,0-10.25-1.42A11,11,0,0,0,328,81q-3.51,6.74,2.95,14.54L334,99.23a20.36,20.36,0,0,1,1.9,2.73,9,9,0,0,1,1,2.47,6.16,6.16,0,0,1,.08,2.34,7.78,7.78,0,0,1-.79,2.32,7.47,7.47,0,0,1-4.4,3.85,7.82,7.82,0,0,1-9.84-6c-.23-1.27.14-3.16,1.09-5.67l-6.87-1.86q-2.1,6.09-.35,10.94a14,14,0,0,0,7.05,7.63A14.36,14.36,0,0,0,334,119.13a13.86,13.86,0,0,0,8.5-7.26,12.34,12.34,0,0,0,1.38-8.2q-.78-4-4.66-8.58l-3.16-3.74q-3.45-4.08-1.91-7a5,5,0,0,1,3.52-2.68,7,7,0,0,1,4.95.76A6.85,6.85,0,0,1,345.55,85a9.44,9.44,0,0,1,1,4.5l6.46-.35Q352.63,80.29,345.66,76.67Z"/><path d="M394.1,145.51a23.78,23.78,0,0,0-.23-33.43A23.15,23.15,0,0,0,377,105.15a22.3,22.3,0,0,0-16.59,6.8q-7.68,7.78-6.91,18a24,24,0,0,0,23.89,22.49A22.37,22.37,0,0,0,394.1,145.51Zm-29-4.63a16.24,16.24,0,0,1-4.88-11.62,17.54,17.54,0,0,1,17.06-17.55,17,17,0,0,1,17.05,16.81,17.67,17.67,0,0,1-17.17,17.32A16.36,16.36,0,0,1,365.09,140.88Z"/><path d="M391.49,173.81a24,24,0,0,0,14.63,29.37,22.37,22.37,0,0,0,18-.73A23.78,23.78,0,0,0,435.52,171a23.16,23.16,0,0,0-13.39-12.31,22.25,22.25,0,0,0-17.92.63Q394.33,164,391.49,173.81Zm6.51,1.66a17.52,17.52,0,0,1,22.07-10.55,16.94,16.94,0,0,1,10.17,21.67,17.65,17.65,0,0,1-22.09,10.3A16.77,16.77,0,0,1,398,175.47Z"/><polygon points="405.99 223.26 406.61 230.09 438.31 227.2 406.87 263.36 454.9 258.97 454.28 252.14 422.81 255.02 454.33 218.84 405.99 223.26"/><rect y="308.89" width="123.12" height="7.54"/><rect x="376.88" y="310.15" width="123.12" height="7.54"/><circle cx="274.27" cy="224.08" r="12.14"/></svg>