<svg data-name="圖層 1" xmlns="http://www.w3.org/2000/svg" viewBox="0 0 500 500"><path d="M259.48 182.13h-15.03l-64.66-.13v12.57l29.82.05a54.68 54.68 0 00-15.18 20.58 53.61 53.61 0 0010.9 59.08L244 314.37l-38.82 40a53.62 53.62 0 00-11.09 59 54.63 54.63 0 0015.1 20.63h-29.82v12.56l64.74.11h15.04l61.06.1V434.2h-26.23a54.57 54.57 0 0015.18-20.58 53.63 53.63 0 00-10.89-59.08l-38.68-40.1 38.81-40a53.61 53.61 0 0011.09-59 54.65 54.65 0 00-15.1-20.63h26.22v-12.56l-61.15-.1zm29.76 181.09a41.83 41.83 0 01-30.09 70.88h-15a41.84 41.84 0 01-29.92-71l37.59-38.71zm8.7-143a41.26 41.26 0 01-8.53 45.41l-37.6 38.72-37.46-38.84a41.84 41.84 0 0130.1-70.89h15a41.25 41.25 0 0138.49 25.64zM68.13 259a22.53 22.53 0 0017.1-5.33 22.81 22.81 0 008.29-16 24.8 24.8 0 00-2.19-12.61l-8.24-.76a34.25 34.25 0 012.11 3.4 17.53 17.53 0 011.32 3.07 14.47 14.47 0 01.61 6.23 15.93 15.93 0 01-6 11.34 16.53 16.53 0 01-12.46 3.71 17 17 0 01-11.76-5.92A15.69 15.69 0 0153 234q.59-6.33 6.07-11.8l-8.07-.74A23.34 23.34 0 0046.59 233a22.87 22.87 0 006.64 19 23.31 23.31 0 0014.9 7zM74.11 207.27q10 4.35 19.27 0a24 24 0 0012.39-30.38 22.31 22.31 0 00-12.46-13.09 23.78 23.78 0 00-31.11 12.25 23.17 23.17 0 00-.4 18.19 22.26 22.26 0 0012.31 13.03zm-6-28.57a16.06 16.06 0 019.31-9 17.64 17.64 0 0122.32 9.78A16.87 16.87 0 0177 201a16.41 16.41 0 01-9.12-9.3 16.2 16.2 0 01.2-13zM127.36 137.19l-36.14-13.65 28.15 41.1 4.97-5.06-16.16-22.75 30.25 11.41-11.63-30.31 22.65 16.11 4.93-5.01-40.88-28.14 13.86 36.3zM143.175 84.042l5.902-3.497 23.175 39.11-5.902 3.496zM184.71 111.98l6.57-1.99-9.26-30.45L223.8 103l-14.03-46.15-6.56 2 9.19 30.23-41.81-23.55 14.12 46.45zM257.85 100.38a20.56 20.56 0 0016.4-6.38 19.23 19.23 0 004.26-6.65 31 31 0 001.6-9l.07-1.51-18.77-.84-.28 6.45 11.33.49a12.22 12.22 0 01-4.86 8 13.74 13.74 0 01-9.24 3 17.07 17.07 0 01-15.73-17.77 16.61 16.61 0 015.41-12 16.28 16.28 0 0112.3-4.44q8 .34 13.3 8l5.09-4.47a28.73 28.73 0 00-8.37-7.43 23.69 23.69 0 00-34.62 20 22.87 22.87 0 006.08 16.89 22.12 22.12 0 0016.03 7.66zM345.66 76.67a14.11 14.11 0 00-10.25-1.42A11 11 0 00328 81q-3.51 6.74 2.95 14.54l3.05 3.69a20.36 20.36 0 011.9 2.73 9 9 0 011 2.47 6.16 6.16 0 01.08 2.34 7.78 7.78 0 01-.79 2.32 7.47 7.47 0 01-4.4 3.85 7.82 7.82 0 01-9.84-6c-.23-1.27.14-3.16 1.09-5.67l-6.87-1.86q-2.1 6.09-.35 10.94a14 14 0 007.05 7.63 14.36 14.36 0 0011.13 1.15 13.86 13.86 0 008.5-7.26 12.34 12.34 0 001.38-8.2q-.78-4-4.66-8.58l-3.16-3.74q-3.45-4.08-1.91-7a5 5 0 013.52-2.68 7 7 0 014.95.76 6.85 6.85 0 012.93 2.57 9.44 9.44 0 011 4.5l6.46-.35q-.38-8.86-7.35-12.48zM394.1 145.51a23.78 23.78 0 00-.23-33.43 23.15 23.15 0 00-16.87-6.93 22.3 22.3 0 00-16.59 6.8q-7.68 7.78-6.91 18a24 24 0 0023.89 22.49 22.37 22.37 0 0016.71-6.93zm-29-4.63a16.24 16.24 0 01-4.88-11.62 17.54 17.54 0 0117.06-17.55 17 17 0 0117.05 16.81 17.67 17.67 0 01-17.17 17.32 16.36 16.36 0 01-12.07-4.96zM391.49 173.81a24 24 0 0014.63 29.37 22.37 22.37 0 0018-.73 23.78 23.78 0 0011.4-31.45 23.16 23.16 0 00-13.39-12.31 22.25 22.25 0 00-17.92.63q-9.88 4.68-12.72 14.49zm6.51 1.66a17.52 17.52 0 0122.07-10.55 16.94 16.94 0 0110.17 21.67 17.65 17.65 0 01-22.09 10.3A16.77 16.77 0 01398 175.47zM405.99 223.26l.62 6.83 31.7-2.89-31.44 36.16 48.03-4.39-.62-6.83-31.47 2.88 31.52-36.18-48.34 4.42zM0 308.89h123.12v7.54H0zM376.88 310.15H500v7.54H376.88z"/><circle cx="274.27" cy="224.08" r="12.14"/></svg>