<svg id="圖層_1" data-name="圖層 1" xmlns="http://www.w3.org/2000/svg" viewBox="0 0 300 300"><title>工作區域 14 複本 2</title><path d="M263,282.76a6.25,6.25,0,0,0,.9-3.23,6.31,6.31,0,0,0-3.82-5.8L215.17,134.82l16.22-53.94a6.33,6.33,0,0,0-.12-4L210.57,20.8a6.31,6.31,0,0,0-8.06-3.75l-14.66,5.3V6.16a6.31,6.31,0,1,0-12.62,0V26.91l-24.88,9-25.58-9.2V6.16a6.31,6.31,0,0,0-12.62,0v16L98,17.05a6.3,6.3,0,0,0-8,3.71L68.75,76.83a6.3,6.3,0,0,0-.13,4.09l16.43,53.17L39.92,273.73a6.31,6.31,0,0,0-3.82,5.8,6.25,6.25,0,0,0,.9,3.23l-.6,1.84a6.31,6.31,0,0,0,4.07,7.94,7.38,7.38,0,0,0,.78.19c1.37,3.68,3.66,7.12,8.33,7.12,3.55,0,5.73-2,7.17-4.57,1.44,2.58,3.62,4.57,7.17,4.57s5.73-2,7.17-4.57c1.44,2.58,3.62,4.57,7.17,4.57s5.74-2,7.18-4.57c1.44,2.58,3.61,4.57,7.17,4.57s5.73-2,7.17-4.57c1.44,2.58,3.62,4.57,7.17,4.57s5.73-2,7.17-4.57c1.44,2.58,3.62,4.57,7.18,4.57s5.73-2,7.17-4.57c1.44,2.57,3.62,4.57,7.17,4.57s5.74-2,7.18-4.58c1.44,2.58,3.62,4.58,7.18,4.58s5.73-2,7.17-4.57c1.44,2.58,3.62,4.57,7.17,4.57s5.73-2,7.17-4.57c1.44,2.58,3.62,4.57,7.18,4.57s5.73-2,7.17-4.57c1.44,2.58,3.61,4.57,7.17,4.57s5.73-2,7.17-4.57c1.44,2.58,3.62,4.57,7.17,4.57s5.74-2,7.18-4.57c1.44,2.58,3.61,4.57,7.17,4.57s5.73-2,7.17-4.57c1.44,2.58,3.62,4.57,7.17,4.57s5.74-2,7.18-4.57c1.44,2.57,3.62,4.57,7.18,4.57,4.67,0,7-3.44,8.32-7.12a5.35,5.35,0,0,0,.79-.19,6.31,6.31,0,0,0,4.07-7.94Zm-173.15-8.2a7.45,7.45,0,0,0-4.41-1.34c-3.56,0-5.74,2-7.18,4.57-1.43-2.57-3.61-4.57-7.17-4.57s-5.73,2-7.17,4.57c-1.44-2.58-3.62-4.57-7.17-4.57a7.5,7.5,0,0,0-3.7.9l43-133.06h13.62C107.24,160.84,97.52,225,89.85,274.56Zm58,.53a7.34,7.34,0,0,0-5.07-1.87c-3.56,0-5.73,2-7.17,4.57-1.44-2.57-3.62-4.57-7.18-4.57s-5.73,2-7.17,4.57c-1.44-2.57-3.62-4.57-7.18-4.57s-5.73,2-7.17,4.57c-1.44-2.58-3.61-4.57-7.17-4.57a7.38,7.38,0,0,0-5.89,2.71c4.81-31,17.21-111.62,20-134.87h34Zm-51.48-147L81.32,79.26,99.52,31l12.63,4.55v14a6.31,6.31,0,0,0,12.62,0V40.11l23.44,8.44a6.38,6.38,0,0,0,4.29,0l22.73-8.22v9.3a6.31,6.31,0,1,0,12.62,0V35.76l13.05-4.71,17.8,48.21L204,128.12ZM200.2,273.22c-3.55,0-5.73,2-7.17,4.57-1.44-2.57-3.62-4.57-7.17-4.57s-5.74,2-7.17,4.57c-1.44-2.57-3.62-4.57-7.18-4.57s-5.73,2-7.17,4.57c-1.44-2.57-3.61-4.57-7.17-4.57a7.34,7.34,0,0,0-5.08,1.88v-134H186l20.18,135A7.4,7.4,0,0,0,200.2,273.22Zm43,0c-3.56,0-5.74,2-7.18,4.57-1.44-2.57-3.61-4.57-7.17-4.57s-5.73,2-7.17,4.57c-1.44-2.57-3.62-4.57-7.17-4.57a7.44,7.44,0,0,0-4.34,1.29l-20-133.45h13.67l43,133.07A7.54,7.54,0,0,0,243.24,273.22Z"/></svg>