<svg id="圖層_1" data-name="圖層 1" xmlns="http://www.w3.org/2000/svg" viewBox="0 0 136.75 38.75"><defs><style>.cls-1{fill:#050505;}</style></defs><title>工作區域 45</title><path class="cls-1" d="M100,16.6a8.1,8.1,0,0,1,4.7-1.32,6.85,6.85,0,0,1,4.86,2,7.12,7.12,0,0,1,2.09,5.4V36.22h-1.46V22.68a6,6,0,0,0-1.72-4.38,5.66,5.66,0,0,0-4.16-1.75A6,6,0,0,0,100,18.37a5.69,5.69,0,0,0-1.89,4.22V36.22H96.63V22.59a5.91,5.91,0,0,0-1.73-4.24,5.56,5.56,0,0,0-4.17-1.8,6.22,6.22,0,0,0-6.09,6V36.22H83.19V15.78h1.45v2.86a8.23,8.23,0,0,1,6.43-3.36,6.08,6.08,0,0,1,3.7,1.34,7.79,7.79,0,0,1,2.59,3.48A6.42,6.42,0,0,1,100,16.6Z"/><path class="cls-1" d="M111.87,36.47h-2V22.68a5.74,5.74,0,0,0-1.65-4.2,5.44,5.44,0,0,0-4-1.68,5.83,5.83,0,0,0-4.14,1.75,5.49,5.49,0,0,0-1.81,4V36.47h-2V22.59a5.69,5.69,0,0,0-1.66-4.07,5.35,5.35,0,0,0-4-1.72,6,6,0,0,0-5.84,5.79V36.47h-2V15.53h2V17.9a8.51,8.51,0,0,1,2.33-1.84,7.91,7.91,0,0,1,3.85-1,6.35,6.35,0,0,1,3.85,1.39,8,8,0,0,1,2.42,3,6.72,6.72,0,0,1,2.49-3h0A8.43,8.43,0,0,1,104.67,15a7.11,7.11,0,0,1,5,2.07,7.4,7.4,0,0,1,2.17,5.58Zm-1.46-.5h1V22.68a6.91,6.91,0,0,0-2-5.22,6.59,6.59,0,0,0-4.68-1.93,7.9,7.9,0,0,0-4.56,1.28h0a6.29,6.29,0,0,0-2.52,3.36l-.21.69-.26-.67a7.49,7.49,0,0,0-2.5-3.37,5.88,5.88,0,0,0-3.55-1.29,8,8,0,0,0-6.22,3.25l-.46.69V16h-1V36h1V22.59a6.46,6.46,0,0,1,6.34-6.29,5.84,5.84,0,0,1,4.35,1.87,6.17,6.17,0,0,1,1.8,4.42V36h1V22.59a6,6,0,0,1,2-4.4,6.33,6.33,0,0,1,4.49-1.89,5.93,5.93,0,0,1,4.34,1.83,6.24,6.24,0,0,1,1.79,4.55Z"/><path class="cls-1" d="M127.28,36.76h-.41a10.22,10.22,0,0,1-7.51-3.24,10.44,10.44,0,0,1-3.2-7.57,10.22,10.22,0,0,1,3.17-7.47,10.73,10.73,0,0,1,7.86-3.15,10.47,10.47,0,0,1,8,3.72L121,33.13a9.25,9.25,0,0,0,5.68,2.36,9.51,9.51,0,0,0,4.88-1.25,10.62,10.62,0,0,0,3.56-3.34v2.32A10.18,10.18,0,0,1,127.28,36.76Zm-.47-20.16a8.82,8.82,0,0,0-6.41,2.79,8.85,8.85,0,0,0-2.79,6.43A9.3,9.3,0,0,0,120,32.18l13.21-13.13A9.53,9.53,0,0,0,126.81,16.6Z"/><path class="cls-1" d="M127.28,37h-.41a10.47,10.47,0,0,1-7.69-3.32A10.72,10.72,0,0,1,115.91,26a10.43,10.43,0,0,1,3.25-7.64,11,11,0,0,1,8-3.23,10.77,10.77,0,0,1,8.23,3.8l.16.18L121.35,33.11a8.83,8.83,0,0,0,5.3,2.13A9.4,9.4,0,0,0,131.4,34a10.59,10.59,0,0,0,3.49-3.27l.45-.67v3.23l-.06.07A10.48,10.48,0,0,1,127.28,37Zm-.09-21.43a10.54,10.54,0,0,0-7.68,3.08,10,10,0,0,0-3.1,7.29,10.24,10.24,0,0,0,3.13,7.39,10,10,0,0,0,7.33,3.17h.41a10,10,0,0,0,7.56-3.39V31.68a11,11,0,0,1-3.19,2.78,9.84,9.84,0,0,1-5,1.28,9.53,9.53,0,0,1-5.84-2.41l-.22-.18L134.88,19A10.21,10.21,0,0,0,127.19,15.58Zm-7.19,17-.17-.2a9.57,9.57,0,0,1-2.47-6.52,9.07,9.07,0,0,1,2.87-6.6,9,9,0,0,1,6.58-2.87,9.85,9.85,0,0,1,6.59,2.51l.2.18-.19.19Zm6.81-15.69a8.58,8.58,0,0,0-6.23,2.72,8.61,8.61,0,0,0-2.72,6.25,9.09,9.09,0,0,0,2.17,6l12.83-12.74A9.21,9.21,0,0,0,126.81,16.85Z"/><path d="M66.72,35.36v1.27a7.7,7.7,0,0,1-5.5-2.16A7.3,7.3,0,0,1,59,29V2.16h1.46V29a6.25,6.25,0,0,0,6.31,6.41Z"/><path class="cls-1" d="M67,36.88h-.25a8,8,0,0,1-5.67-2.23A7.55,7.55,0,0,1,58.7,29v-27h2V29a6,6,0,0,0,6.06,6.16H67ZM59.2,2.41V29a7.06,7.06,0,0,0,2.2,5.34,7.41,7.41,0,0,0,5.07,2.08V35.6a6.36,6.36,0,0,1-4.4-1.88A6.46,6.46,0,0,1,60.16,29V2.41Z"/><path d="M43.87,36.29A10.36,10.36,0,1,1,53,30.94a.57.57,0,0,1-.78.22.55.55,0,0,1-.22-.77,9.36,9.36,0,0,0,1.15-4.48,9.24,9.24,0,1,0-9.24,9.24,9.13,9.13,0,0,0,5.66-1.94.57.57,0,0,1,.7.91A10.28,10.28,0,0,1,43.87,36.29Z"/><path class="cls-1" d="M43.87,36.54a10.63,10.63,0,1,1,9.3-5.48.82.82,0,0,1-.49.4.79.79,0,0,1-.62-.08.81.81,0,0,1-.32-1.11,9.1,9.1,0,0,0,1.12-4.36,9,9,0,1,0-9,9A8.86,8.86,0,0,0,49.38,33a.82.82,0,0,1,1,1.3A10.55,10.55,0,0,1,43.87,36.54Zm0-20.77a10.14,10.14,0,0,0,0,20.27,10,10,0,0,0,6.21-2.12.32.32,0,0,0,.06-.45.33.33,0,0,0-.46-.06,9.38,9.38,0,0,1-5.81,2,9.49,9.49,0,1,1,8.3-4.89.29.29,0,0,0,0,.24.33.33,0,0,0,.15.2.29.29,0,0,0,.24,0,.3.3,0,0,0,.2-.15,10.15,10.15,0,0,0-8.87-15Z"/><path d="M52.41,30.23a2.71,2.71,0,0,1-1.62-.48,1.49,1.49,0,0,1-.56-1.18V20H49.12v1.8a6.61,6.61,0,0,0-5-2.31,6.39,6.39,0,1,0,0,12.77,6.65,6.65,0,0,0,5.3-2.63,2.54,2.54,0,0,0,.68.83,3.51,3.51,0,0,0,2.16.76h.22l.42-1Zm-8.34,1a5.31,5.31,0,1,1,5-7.31v4A5.5,5.5,0,0,1,44.07,31.22Z"/><path class="cls-1" d="M44.07,32.54a6.64,6.64,0,1,1,0-13.27,6.9,6.9,0,0,1,4.8,1.93V19.78h1.61v8.79a1.21,1.21,0,0,0,.48,1,2.45,2.45,0,0,0,1.45.42h.82L52.6,31.5h-.37a3.76,3.76,0,0,1-2.34-.82,3,3,0,0,1-.55-.58A7,7,0,0,1,44.07,32.54Zm0-12.77a6.14,6.14,0,1,0,0,12.27,6.42,6.42,0,0,0,5.1-2.53l.25-.32.18.36a2.27,2.27,0,0,0,.61.75,3.26,3.26,0,0,0,2,.7h0l.22-.52h-.07a2.86,2.86,0,0,1-1.78-.54A1.72,1.72,0,0,1,50,28.57V20.28h-.61V22.5L48.93,22A6.36,6.36,0,0,0,44.07,19.77Zm0,11.7a5.56,5.56,0,1,1,5.28-7.65l0,.09,0,4.1A5.77,5.77,0,0,1,44.07,31.47Zm0-10.62a5.06,5.06,0,1,0,0,10.12,5.28,5.28,0,0,0,4.8-3.11V24A5.18,5.18,0,0,0,44.07,20.85Z"/><polygon points="27.48 2.16 27.48 18.44 4.13 18.44 4.13 2.16 2.64 2.16 2.64 36.22 4.13 36.22 4.13 19.94 27.48 19.94 27.48 36.22 28.98 36.22 28.98 2.16 27.48 2.16"/><path class="cls-1" d="M29.23,36.47h-2V20.19H4.38V36.47h-2V1.91h2V18.19H27.23V1.91h2Zm-1.5-.5h1V2.41h-1V18.69H3.88V2.41h-1V36h1V19.69H27.73Z"/><path d="M78.26,18.54H71.81V15.19a6.25,6.25,0,0,1,6.31-6.4V7.52a7.74,7.74,0,0,0-5.5,2.15,7.3,7.3,0,0,0-2.27,5.52v21h1.46V19.84h6.45Z"/><path class="cls-1" d="M72.06,36.47h-2V15.19a7.55,7.55,0,0,1,2.35-5.7,8,8,0,0,1,5.67-2.22h.25V9h-.25a6,6,0,0,0-6.06,6.15v3.1h6.45v1.8H72.06ZM70.6,36h1V19.59H78v-.8H71.56v-3.6a6.49,6.49,0,0,1,6.31-6.65V7.77a7.51,7.51,0,0,0-5.08,2.09,7.06,7.06,0,0,0-2.19,5.33Z"/></svg>