<svg id="圖層_1" data-name="圖層 1" xmlns="http://www.w3.org/2000/svg" viewBox="0 0 136.75 38.75"><defs><style>.cls-1{fill:#050505}</style></defs><path class="cls-1" d="M100 16.6a8.1 8.1 0 014.7-1.32 6.85 6.85 0 014.86 2 7.12 7.12 0 012.09 5.4v13.54h-1.46V22.68a6 6 0 00-1.72-4.38 5.66 5.66 0 00-4.16-1.75 6 6 0 00-4.31 1.82 5.69 5.69 0 00-1.89 4.22v13.63h-1.48V22.59a5.91 5.91 0 00-1.73-4.24 5.56 5.56 0 00-4.17-1.8 6.22 6.22 0 00-6.09 6v13.67h-1.45V15.78h1.45v2.86a8.23 8.23 0 016.43-3.36 6.08 6.08 0 013.7 1.34 7.79 7.79 0 012.59 3.48 6.42 6.42 0 012.64-3.5z"/><path class="cls-1" d="M111.87 36.47h-2V22.68a5.74 5.74 0 00-1.65-4.2 5.44 5.44 0 00-4-1.68 5.83 5.83 0 00-4.14 1.75 5.49 5.49 0 00-1.81 4v13.92h-2V22.59a5.69 5.69 0 00-1.66-4.07 5.35 5.35 0 00-4-1.72 6 6 0 00-5.84 5.79v13.88h-2V15.53h2v2.37a8.51 8.51 0 012.33-1.84 7.91 7.91 0 013.85-1 6.35 6.35 0 013.85 1.39 8 8 0 012.42 3 6.72 6.72 0 012.49-3 8.43 8.43 0 014.96-1.45 7.11 7.11 0 015 2.07 7.4 7.4 0 012.17 5.58zm-1.46-.5h1V22.68a6.91 6.91 0 00-2-5.22 6.59 6.59 0 00-4.68-1.93 7.9 7.9 0 00-4.56 1.28 6.29 6.29 0 00-2.52 3.36l-.21.69-.26-.67a7.49 7.49 0 00-2.5-3.37 5.88 5.88 0 00-3.55-1.29 8 8 0 00-6.22 3.25l-.46.69V16h-1v20h1V22.59a6.46 6.46 0 016.34-6.29 5.84 5.84 0 014.35 1.87 6.17 6.17 0 011.8 4.42V36h1V22.59a6 6 0 012-4.4 6.33 6.33 0 014.49-1.89 5.93 5.93 0 014.34 1.83 6.24 6.24 0 011.79 4.55zm16.87.79h-.41a10.22 10.22 0 01-7.51-3.24 10.44 10.44 0 01-3.2-7.57 10.22 10.22 0 013.17-7.47 10.73 10.73 0 017.86-3.15 10.47 10.47 0 018 3.72L121 33.13a9.25 9.25 0 005.68 2.36 9.51 9.51 0 004.88-1.25 10.62 10.62 0 003.56-3.34v2.32a10.18 10.18 0 01-7.84 3.54zm-.47-20.16a8.82 8.82 0 00-6.41 2.79 8.85 8.85 0 00-2.79 6.43 9.3 9.3 0 002.39 6.36l13.21-13.13a9.53 9.53 0 00-6.4-2.45z"/><path class="cls-1" d="M127.28 37h-.41a10.47 10.47 0 01-7.69-3.32 10.72 10.72 0 01-3.27-7.68 10.43 10.43 0 013.25-7.64 11 11 0 018-3.23 10.77 10.77 0 018.23 3.8l.16.18-14.2 14a8.83 8.83 0 005.3 2.13A9.4 9.4 0 00131.4 34a10.59 10.59 0 003.49-3.27l.45-.67v3.23l-.06.07a10.48 10.48 0 01-8 3.64zm-.09-21.43a10.54 10.54 0 00-7.68 3.08 10 10 0 00-3.1 7.29 10.24 10.24 0 003.13 7.39 10 10 0 007.33 3.17h.41a10 10 0 007.56-3.39v-1.43a11 11 0 01-3.19 2.78 9.84 9.84 0 01-5 1.28 9.53 9.53 0 01-5.84-2.41l-.22-.18L134.88 19a10.21 10.21 0 00-7.69-3.42zm-7.19 17l-.17-.2a9.57 9.57 0 01-2.47-6.52 9.07 9.07 0 012.87-6.6 9 9 0 016.58-2.87 9.85 9.85 0 016.59 2.51l.2.18-.19.19zm6.81-15.69a8.58 8.58 0 00-6.23 2.72 8.61 8.61 0 00-2.72 6.25 9.09 9.09 0 002.17 6l12.83-12.74a9.21 9.21 0 00-6.05-2.26z"/><path d="M66.72 35.36v1.27a7.7 7.7 0 01-5.5-2.16A7.3 7.3 0 0159 29V2.16h1.46V29a6.25 6.25 0 006.31 6.41z"/><path class="cls-1" d="M67 36.88h-.25a8 8 0 01-5.67-2.23A7.55 7.55 0 0158.7 29V2h2v27a6 6 0 006.06 6.16H67zM59.2 2.41V29a7.06 7.06 0 002.2 5.34 7.41 7.41 0 005.07 2.08v-.82a6.36 6.36 0 01-4.4-1.88A6.46 6.46 0 0160.16 29V2.41z"/><path d="M43.87 36.29A10.36 10.36 0 1153 30.94a.57.57 0 01-.78.22.55.55 0 01-.22-.77 9.36 9.36 0 001.15-4.48 9.24 9.24 0 10-9.24 9.24 9.13 9.13 0 005.66-1.94.57.57 0 01.7.91 10.28 10.28 0 01-6.4 2.17z"/><path class="cls-1" d="M43.87 36.54a10.63 10.63 0 119.3-5.48.82.82 0 01-.49.4.79.79 0 01-.62-.08.81.81 0 01-.32-1.11 9.1 9.1 0 001.12-4.36 9 9 0 10-9 9A8.86 8.86 0 0049.38 33a.82.82 0 011 1.3 10.55 10.55 0 01-6.51 2.24zm0-20.77a10.14 10.14 0 000 20.27 10 10 0 006.21-2.12.32.32 0 00.06-.45.33.33 0 00-.46-.06 9.38 9.38 0 01-5.81 2 9.49 9.49 0 118.3-4.89.29.29 0 000 .24.33.33 0 00.15.2.29.29 0 00.24 0 .3.3 0 00.2-.15 10.15 10.15 0 00-8.87-15z"/><path d="M52.41 30.23a2.71 2.71 0 01-1.62-.48 1.49 1.49 0 01-.56-1.18V20h-1.11v1.8a6.61 6.61 0 00-5-2.31 6.39 6.39 0 100 12.77 6.65 6.65 0 005.3-2.63 2.54 2.54 0 00.68.83 3.51 3.51 0 002.16.76h.22l.42-1zm-8.34 1a5.31 5.31 0 115-7.31v4a5.5 5.5 0 01-5 3.3z"/><path class="cls-1" d="M44.07 32.54a6.64 6.64 0 110-13.27 6.9 6.9 0 014.8 1.93v-1.42h1.61v8.79a1.21 1.21 0 00.48 1 2.45 2.45 0 001.45.42h.82l-.63 1.51h-.37a3.76 3.76 0 01-2.34-.82 3 3 0 01-.55-.58 7 7 0 01-5.27 2.44zm0-12.77a6.14 6.14 0 100 12.27 6.42 6.42 0 005.1-2.53l.25-.32.18.36a2.27 2.27 0 00.61.75 3.26 3.26 0 002 .7l.22-.52h-.07a2.86 2.86 0 01-1.78-.54 1.72 1.72 0 01-.58-1.37v-8.29h-.61v2.22l-.46-.5a6.36 6.36 0 00-4.86-2.23zm0 11.7a5.56 5.56 0 115.28-7.65v4.19a5.77 5.77 0 01-5.28 3.46zm0-10.62a5.06 5.06 0 100 10.12 5.28 5.28 0 004.8-3.11V24a5.18 5.18 0 00-4.8-3.15z"/><path d="M27.48 2.16v16.28H4.13V2.16H2.64v34.06h1.49V19.94h23.35v16.28h1.5V2.16h-1.5z"/><path class="cls-1" d="M29.23 36.47h-2V20.19H4.38v16.28h-2V1.91h2v16.28h22.85V1.91h2zm-1.5-.5h1V2.41h-1v16.28H3.88V2.41h-1V36h1V19.69h23.85z"/><path d="M78.26 18.54h-6.45v-3.35a6.25 6.25 0 016.31-6.4V7.52a7.74 7.74 0 00-5.5 2.15 7.3 7.3 0 00-2.27 5.52v21h1.46V19.84h6.45z"/><path class="cls-1" d="M72.06 36.47h-2V15.19a7.55 7.55 0 012.35-5.7 8 8 0 015.67-2.22h.25V9h-.25a6 6 0 00-6.06 6.15v3.1h6.45v1.8h-6.41zM70.6 36h1V19.59H78v-.8h-6.44v-3.6a6.49 6.49 0 016.31-6.65v-.77a7.51 7.51 0 00-5.08 2.09 7.06 7.06 0 00-2.19 5.33z"/></svg>