<svg data-name="圖層 1" xmlns="http://www.w3.org/2000/svg" viewBox="0 0 300 300"><path d="M291.61 142h-12.67a58.12 58.12 0 00-113.31-8.44 37.51 37.51 0 00-29.4 0A58.11 58.11 0 0022.93 142H8.39a8.39 8.39 0 100 16.77H23A58.13 58.13 0 00138.62 150a58.92 58.92 0 00-.56-8H138a29 29 0 0125.9 0h-.07a57.35 57.35 0 00-.57 8 58.13 58.13 0 00115.6 8.75h12.77a8.39 8.39 0 100-16.77zm-70.24 49.38A41.36 41.36 0 11262.73 150a41.41 41.41 0 01-41.36 41.36zM39.13 150a41.36 41.36 0 1141.36 41.36A41.4 41.4 0 0139.13 150z"/></svg>