<svg data-name="圖層 1" xmlns="http://www.w3.org/2000/svg" viewBox="0 0 300 300"><path d="M299.19 207.63L209.37 55a5.9 5.9 0 00-3.7-2.73 6.48 6.48 0 00-1.38-.15H95.81a6.14 6.14 0 00-1.48.14 5.9 5.9 0 00-3.7 2.74L.81 207.63a5.85 5.85 0 001.86 7.88l31.09 20.19a5.85 5.85 0 008-1.51l18.61-26.06-6.49 32.78a5.86 5.86 0 005.75 7h74.72a5.84 5.84 0 005.86-6l-.66-26.52h20.91l-.65 26.52a5.84 5.84 0 005.85 6h74.73a5.86 5.86 0 005.74-7L239.58 208l18.7 26.19a5.85 5.85 0 008 1.51l31.09-20.19a5.85 5.85 0 001.82-7.88zm-263.75 15.2l-21.7-14.09 70-119-17.9 90.49zm31.27 13.36L98.54 75.33l27.9 85.18 1.87 75.68zM100 60.88h26.9l2.1 88.55zm60.74 142.79h-21.52l-3.46-139.86h28.41zM173 60.88h26.85L171 149.39zm-1.41 175.31l1.87-75.7 27.9-85.29 31.86 161zm92.94-13.36l-30.5-42.71-17.88-90.53 70.11 119.15z"/></svg>