<svg id="圖層_1" data-name="圖層 1" xmlns="http://www.w3.org/2000/svg" viewBox="0 0 512 512"><defs><style>.cls-1{fill:#fff;}</style></defs><title>icon_share</title><path class="cls-1" d="M495.13,67.29A124.74,124.74,0,0,0,418.91,8.8a125,125,0,0,0-95.26,12.54L138,128.54A125.81,125.81,0,0,0,78.2,264.31l-15.46,8.93A125.53,125.53,0,1,0,188.27,490.66l185.67-107.2a125.63,125.63,0,0,0,59.83-135.8l15.41-8.9A125.52,125.52,0,0,0,495.13,67.29ZM261,187.76c1.74-1,3.51-1.94,5.29-2.83.53-.27,1.07-.52,1.6-.77,1.33-.64,2.66-1.25,4-1.82.54-.23,1.08-.47,1.63-.69,1.8-.74,3.62-1.44,5.46-2.06l.07,0c1.86-.63,3.74-1.19,5.63-1.71.56-.16,1.12-.29,1.68-.44,1.41-.36,2.81-.69,4.23-1l1.71-.35c1.88-.36,3.77-.69,5.67-.94l.1,0c1.94-.25,3.89-.43,5.84-.57l1.71-.1c1.45-.08,2.9-.13,4.36-.14.35,0,.71,0,1.07,0l1.11,0,1.12,0c1.44,0,2.89.08,4.33.18h.13c1.41.09,2.83.23,4.24.38l1.12.13c1.44.18,2.89.37,4.33.61l.08,0c1.43.23,2.85.51,4.28.81l1.09.24c1.45.32,2.89.66,4.33,1a99.6,99.6,0,0,1,54.14,36.52l0,0L374.45,224a80.52,80.52,0,0,0-42.27-27.62,81.77,81.77,0,0,0-21.14-2.8,80.65,80.65,0,0,0-40.44,10.91L139,280.45l-.88-1.33c-1.09-1.63-1.92-3-2.63-4.19a75.17,75.17,0,0,1-4.24-8.62L130,263.36ZM151.82,302a81.19,81.19,0,0,0,27.92,13.63c1.58.42,3.16.77,4.74,1.1l1.41.27c1.17.22,2.34.41,3.52.58l1.41.2c1.58.2,3.17.37,4.75.47h.12c1.55.1,3.1.14,4.65.15l.54,0c.3,0,.59,0,.88,0,1.17,0,2.34-.05,3.5-.12.47,0,.93,0,1.4-.08,1.57-.11,3.14-.26,4.7-.46l.09,0c1.53-.2,3.06-.46,4.58-.75l1.38-.29c1.15-.24,2.29-.51,3.43-.8l1.34-.35c1.53-.42,3-.87,4.56-1.39h0c1.5-.51,3-1.08,4.46-1.68l1.3-.56c1.09-.46,2.18-1,3.25-1.47l1.28-.62q2.18-1.08,4.29-2.29l114.75-66.25c.39.53.82,1,1.2,1.59l3.88,5.65,2.38,6.19c.48,1.26.9,2.52,1.28,3.8L251,324.24a99.89,99.89,0,0,1-50.06,13.5A101,101,0,0,1,134,312.31Zm24.62-14.22,106.7-61.6a55.89,55.89,0,0,1,27.9-7.55,56.71,56.71,0,0,1,14.65,2,57.51,57.51,0,0,1,9.79,3.62l-106.7,61.6a55.89,55.89,0,0,1-27.9,7.55,56.58,56.58,0,0,1-14.64-1.95A57.62,57.62,0,0,1,176.44,287.79Zm-79,45.6,13.9-8A125.31,125.31,0,0,0,263.51,346l102.27-59a56.24,56.24,0,0,1-26.57,36.4L153.54,430.51a55.89,55.89,0,0,1-27.9,7.55A56.71,56.71,0,0,1,111,436.11,56.07,56.07,0,0,1,97.47,333.39Zm317-154.78-13.9,8A125.31,125.31,0,0,0,248.41,166L146,225.14c.18-.8.33-1.61.55-2.41a55.69,55.69,0,0,1,26.12-34L358.38,81.49a55.89,55.89,0,0,1,27.9-7.55,56.71,56.71,0,0,1,14.65,2,56.1,56.1,0,0,1,13.52,102.72ZM408.2,300.75a99.8,99.8,0,0,1-46.8,61L175.73,468.94A100.45,100.45,0,1,1,75.28,295L108.11,276a101.38,101.38,0,0,0,5.65,11.46c1.09,1.9,2.27,3.74,3.47,5.55l-32.3,18.65A81.15,81.15,0,0,0,104.5,460.34c1.57.42,3.15.78,4.73,1.1.47.1.94.18,1.41.27,1.18.22,2.35.42,3.53.58l1.4.2c1.59.2,3.17.37,4.76.47h.11c1.55.1,3.1.14,4.65.15l.55,0c.29,0,.58,0,.88,0,1.17,0,2.33-.05,3.5-.12.46,0,.93,0,1.39-.08,1.58-.11,3.15-.25,4.71-.46h.09c1.53-.21,3.06-.47,4.58-.76l1.38-.29c1.14-.24,2.28-.51,3.42-.8l1.35-.35c1.53-.42,3.05-.87,4.56-1.39h0c1.5-.51,3-1.08,4.46-1.68l1.3-.56c1.09-.46,2.17-.95,3.25-1.47l1.28-.62q2.16-1.08,4.28-2.29L351.75,345A81.27,81.27,0,0,0,387,245.73L403.82,236A99.65,99.65,0,0,1,408.2,300.75Zm75.24-144.7a99.76,99.76,0,0,1-46.8,61l-9.47,5.47-4.91-7.37-4.09-9.72,8.82-5.09A81.24,81.24,0,0,0,456.7,89.47h0a80.63,80.63,0,0,0-49.28-37.81,81.77,81.77,0,0,0-21.14-2.8,80.65,80.65,0,0,0-40.44,10.91L160.17,167a81.23,81.23,0,0,0-40.53,73.42L101.29,251a100.56,100.56,0,0,1,49.23-100.72L336.19,43.06q2.63-1.5,5.3-2.83c.53-.27,1.06-.52,1.59-.77,1.33-.64,2.67-1.25,4-1.82q.81-.36,1.62-.69c1.81-.74,3.63-1.44,5.48-2.07l.05,0c1.86-.63,3.74-1.19,5.63-1.71.56-.16,1.12-.29,1.68-.44,1.41-.36,2.81-.69,4.23-1l1.71-.35c1.88-.36,3.76-.69,5.65-.94l.13,0c1.93-.25,3.88-.43,5.82-.57l1.73-.1c1.44-.08,2.89-.13,4.33-.14.37,0,.73,0,1.09,0l1.13,0,1.08,0c1.46,0,2.91.08,4.37.18h.06c1.44.1,2.87.24,4.31.39l1.08.13c1.46.18,2.91.37,4.36.61h.06c1.43.24,2.86.52,4.29.82l1.09.24c1.45.32,2.89.66,4.33,1.05a100.43,100.43,0,0,1,71,123Z"/></svg>