<svg data-name="圖層 1" xmlns="http://www.w3.org/2000/svg" viewBox="0 0 300 300"><path d="M301.55 97.72a75.53 75.53 0 10-80.72 75.34v19.69h-13.36a10.42 10.42 0 00-9 5.2l-18.55 32.13a10.39 10.39 0 000 10.4l18.55 32.13a10.42 10.42 0 009 5.2h37.11a10.42 10.42 0 009-5.2l18.55-32.13a10.44 10.44 0 000-10.4L253.58 198a10.42 10.42 0 00-9-5.2h-13.36v-19.74a75.62 75.62 0 0070.33-75.34zm-121 30.41a54.75 54.75 0 1191 0v-.39a45.51 45.51 0 10-91 0c-.04.13-.03.26-.03.39zm58.06 85.41l12.55 21.74L240 254.62l-11.9-20.94a2.86 2.86 0 00-2.55-1.47 2.9 2.9 0 00-2.51 1.53l-11 20.72-11.07-19.18 12.55-21.74zM226 152.47a24.73 24.73 0 1124.73-24.73A24.75 24.75 0 01226 152.47zM82.28 126.94v-19.69h13.36a10.39 10.39 0 009-5.2l18.56-32.13a10.44 10.44 0 000-10.4l-18.57-32.13a10.39 10.39 0 00-9-5.2h-37.1a10.42 10.42 0 00-9 5.2L31 59.52a10.39 10.39 0 000 10.4l18.55 32.13a10.42 10.42 0 009 5.2h13.34v19.69a75.53 75.53 0 1010.39 0zm5.5-84L76.57 64 64.65 43zM64.53 86.46L52 64.72l9.26-16 12.87 22.7a2.91 2.91 0 002.51 1.46 2.88 2.88 0 002.51-1.53L92.07 47.2l10.12 17.52-12.55 21.74zm12.55 115.72A29.93 29.93 0 11107 172.26a30 30 0 01-29.92 29.92z"/></svg>