<svg id="圖層_1" data-name="圖層 1" xmlns="http://www.w3.org/2000/svg" viewBox="0 0 300 300"><title>icon_coat</title><path d="M299.19,207.63,209.37,55a5.9,5.9,0,0,0-3.7-2.73,6.48,6.48,0,0,0-1.38-.15H95.81a6.14,6.14,0,0,0-1.48.14A5.9,5.9,0,0,0,90.63,55L.81,207.63a5.85,5.85,0,0,0,1.86,7.88L33.76,235.7a5.85,5.85,0,0,0,8-1.51l18.61-26.06-6.49,32.78a5.86,5.86,0,0,0,5.75,7h74.72a5.84,5.84,0,0,0,5.86-6l-.66-26.52h20.91l-.65,26.52a5.84,5.84,0,0,0,5.85,6h74.73a5.86,5.86,0,0,0,5.74-7L239.58,208l18.7,26.19a5.85,5.85,0,0,0,8,1.51l31.09-20.19A5.85,5.85,0,0,0,299.19,207.63ZM35.44,222.83l-21.7-14.09,70-119-17.9,90.49Zm31.27,13.36L98.54,75.33l27.9,85.18,1.87,75.68ZM100,60.88H126.9L129,149.43Zm60.74,142.79H139.22L135.76,63.81h28.41ZM173,60.88h26.85L171,149.39Zm-1.41,175.31,1.87-75.7L201.36,75.2l31.86,161Zm92.94-13.36-30.5-42.71L216.15,89.59l70.11,119.15Z"/></svg>