<svg id="圖層_1" data-name="圖層 1" xmlns="http://www.w3.org/2000/svg" viewBox="0 0 300 300"><title>工作區域 14</title><path d="M297.57,90.37,241.39,30.16a8.73,8.73,0,0,0-7.72-2.78c-.15,0-.3,0-.46,0H67.63A9.22,9.22,0,0,0,65.05,27a9,9,0,0,0-6.44,2.87L2.43,90.1A9,9,0,0,0,3.06,103l44.42,39.08-11.73,121a9,9,0,0,0,9,9.89H255.27a9,9,0,0,0,9-9.89l-11.7-120.73,44.39-39.06a9,9,0,0,0,.63-12.93Zm-111.31-45h5.43L180,81.13l-16.12-9.35Zm-38.21,0v-9h0v9h14.54L150,60.23,137.41,45.4Zm-34.31,0,22.4,26.38L120,81.13,108.31,45.4ZM22,95.62l33.5-35.91L49.62,120ZM148.05,254.93v9h0v-9H54.67L75,45.4H89.32l17,51.93a9,9,0,0,0,13.1,5L150,84.6l30.56,17.73a9,9,0,0,0,4.53,1.22,9.17,9.17,0,0,0,3.22-.59,9,9,0,0,0,5.35-5.63l17-51.93H225l20.31,209.53ZM250.4,120.21,244.57,60,278,95.89Z"/></svg>