<svg id="圖層_1" data-name="圖層 1" xmlns="http://www.w3.org/2000/svg" viewBox="0 0 300 300"><title>icon_glasses</title><path d="M291.61,142H278.94a58.12,58.12,0,0,0-113.31-8.44,37.51,37.51,0,0,0-29.4,0A58.11,58.11,0,0,0,22.93,142H8.39a8.39,8.39,0,1,0,0,16.77H23A58.13,58.13,0,0,0,138.62,150a58.92,58.92,0,0,0-.56-8H138a29,29,0,0,1,25.9,0h-.07a57.35,57.35,0,0,0-.57,8,58.13,58.13,0,0,0,115.6,8.75h12.77a8.39,8.39,0,1,0,0-16.77Zm-70.24,49.38A41.36,41.36,0,1,1,262.73,150,41.41,41.41,0,0,1,221.37,191.36ZM39.13,150a41.36,41.36,0,1,1,41.36,41.36A41.4,41.4,0,0,1,39.13,150Z"/></svg>