<svg data-name="圖層 1" xmlns="http://www.w3.org/2000/svg" viewBox="0 0 300 300"><path d="M286.87 201.35c-.53-.65-1.08-1.28-1.64-1.91l-.31-.36a83.21 83.21 0 00-2.05-2.16l-10-10-31.17-31.16V50.3a11.46 11.46 0 00-11.45-11.46H175.3V14.67a11.46 11.46 0 00-11.45-11.46h-94.1A11.46 11.46 0 0058.3 14.67v105.46l-41.17 41.16A58.5 58.5 0 1099.86 244l32.33-32.32 67.95 67.95c.7.71 1.42 1.39 2.16 2.06.1.09.22.18.32.28.64.57 1.29 1.13 1.95 1.67h.06a58.5 58.5 0 0073.74 0h.06c.66-.54 1.31-1.1 1.95-1.67l.33-.28a59.528 59.528 0 004.21-4.22l.31-.36c.56-.63 1.11-1.26 1.64-1.91l.09-.11a58.5 58.5 0 000-73.64zm-139.26-6.62v-133h71.19v98.77a11.44 11.44 0 003.35 8.1l25.93 25.93-53.28 47.39zM81.2 124.87V26.12h71.19v12.72h-16.24A11.46 11.46 0 00124.7 50.3v136.49l-27.61 27.62L43.81 167l34-34a11.44 11.44 0 003.39-8.13zm186.72 89.56l.19.23c.34.38.68.76 1 1.15l.06.07a35.65 35.65 0 010 44.81l-.06.07c-.31.39-.65.77-1 1.15a2.11 2.11 0 01-.19.23c-.4.45-.82.89-1.25 1.31s-.87.85-1.32 1.26l-.16.14c-.4.36-.81.71-1.22 1a35.67 35.67 0 01-44.75.12l-.18-.15c-.33-.26-.64-.54-1-.82l-.43-.37-.69-.65-.61-.59-4.92-4.92-.39-.38 53.28-47.4 2.37 2.37c.45.49.87.94 1.27 1.37z"/></svg>