<svg data-name="圖層 1" xmlns="http://www.w3.org/2000/svg" viewBox="0 0 300 300"><path d="M252.36 48.79l.6-1.16a4.55 4.55 0 00-1.86-6.1L245.79 11V6.79a6.85 6.85 0 00-6.85-6.85H60.76a6.85 6.85 0 00-6.85 6.85v1a7.24 7.24 0 00-.22.92L48.2 41.77a4.57 4.57 0 00-1.46 5.86l.37.72-6 36.51a7 7 0 00.07 2.62l46.43 207.11a6.86 6.86 0 006.69 5.35h42.17a6.85 6.85 0 006.85-6.93L141 98h17l-2.29 195a6.85 6.85 0 006.85 6.93h42.17a6.85 6.85 0 006.68-5.33l47.15-207.1a6.77 6.77 0 00.07-2.69zM171.75 98h11.36a6.85 6.85 0 000-13.7h-66.52a6.85 6.85 0 100 13.7h10.73l2.21 188.23h-13.41L77.18 86.41l8-32.69L101 45.54a4.55 4.55 0 002.44-4.54h92.82a4.55 4.55 0 002.43 4.54l15.79 8.18 8 32.69-38.89 199.83h-14.06zM207 39.53l4.33-8.35 31.47 16.3-4.33 8.36zM94.43 22.92a4.57 4.57 0 00-6.16-2l-12.21 6.37h-8.44V13.65h164.46v13.64h-8.44L211.43 21a4.57 4.57 0 00-6.16 2L203 27.29H96.69zm-6 8.26l4.33 8.35-31.48 16.31L57 47.48zM58 66.37a4.83 4.83 0 001.31.2 4.53 4.53 0 002.1-.52l19.3-10-7.33 29.86a2.06 2.06 0 000 .82l38.88 199.51H99.79L54.8 85.78zm129.46 219.87l38.88-199.51a2.06 2.06 0 000-.82L219 56.05l19.3 10a4.4 4.4 0 003.25.36l3.37 19.39-45.62 200.44z"/></svg>