<svg id="圖層_1" data-name="圖層 1" xmlns="http://www.w3.org/2000/svg" viewBox="0 0 300 300"><title>icon_socks</title><path d="M286.87,201.35c-.53-.65-1.08-1.28-1.64-1.91l-.31-.36c-.67-.73-1.35-1.45-2.05-2.16l-10-10h0L241.7,155.76V50.3a11.46,11.46,0,0,0-11.45-11.46H175.3V14.67A11.46,11.46,0,0,0,163.85,3.21H69.75A11.46,11.46,0,0,0,58.3,14.67V120.13L17.13,161.29A58.5,58.5,0,1,0,99.86,244l32.33-32.32,67.95,67.95c.7.71,1.42,1.39,2.16,2.06.1.09.22.18.32.28.64.57,1.29,1.13,1.95,1.67l.06,0a58.5,58.5,0,0,0,73.74,0l.06,0c.66-.54,1.31-1.1,1.95-1.67l.33-.28c.73-.67,1.45-1.35,2.16-2.06s1.38-1.42,2.05-2.16l.31-.36c.56-.63,1.11-1.26,1.64-1.91l.09-.11a58.5,58.5,0,0,0,0-73.64Zm-139.26-6.62v-133H218.8V160.5a11.44,11.44,0,0,0,3.35,8.1l25.93,25.93L194.8,241.92ZM81.2,124.87V26.12h71.19V38.84H136.15A11.46,11.46,0,0,0,124.7,50.3V186.79L97.09,214.41,43.81,167l34-34A11.44,11.44,0,0,0,81.2,124.87Zm186.72,89.56.19.23c.34.38.68.76,1,1.15l.06.07a35.65,35.65,0,0,1,0,44.81l-.06.07c-.31.39-.65.77-1,1.15a2.11,2.11,0,0,1-.19.23c-.4.45-.82.89-1.25,1.31s-.87.85-1.32,1.26l-.16.14c-.4.36-.81.71-1.22,1l0,0a35.67,35.67,0,0,1-44.75.12l-.18-.15c-.33-.26-.64-.54-1-.82l-.43-.37-.69-.65-.61-.59-4.92-4.92-.39-.38,53.28-47.4,2.37,2.37C267.1,213.55,267.52,214,267.92,214.43Z"/></svg>