<svg data-name="圖層 1" xmlns="http://www.w3.org/2000/svg" viewBox="0 0 300 300"><path d="M263 282.76a6.25 6.25 0 00.9-3.23 6.31 6.31 0 00-3.82-5.8l-44.91-138.91 16.22-53.94a6.33 6.33 0 00-.12-4l-20.7-56.08a6.31 6.31 0 00-8.06-3.75l-14.66 5.3V6.16a6.31 6.31 0 10-12.62 0v20.75l-24.88 9-25.58-9.2V6.16a6.31 6.31 0 00-12.62 0v16L98 17.05a6.3 6.3 0 00-8 3.71L68.75 76.83a6.3 6.3 0 00-.13 4.09l16.43 53.17-45.13 139.64a6.31 6.31 0 00-3.82 5.8 6.25 6.25 0 00.9 3.23l-.6 1.84a6.31 6.31 0 004.07 7.94 7.38 7.38 0 00.78.19c1.37 3.68 3.66 7.12 8.33 7.12 3.55 0 5.73-2 7.17-4.57 1.44 2.58 3.62 4.57 7.17 4.57s5.73-2 7.17-4.57c1.44 2.58 3.62 4.57 7.17 4.57s5.74-2 7.18-4.57c1.44 2.58 3.61 4.57 7.17 4.57s5.73-2 7.17-4.57c1.44 2.58 3.62 4.57 7.17 4.57s5.73-2 7.17-4.57c1.44 2.58 3.62 4.57 7.18 4.57s5.73-2 7.17-4.57c1.44 2.57 3.62 4.57 7.17 4.57s5.74-2 7.18-4.58c1.44 2.58 3.62 4.58 7.18 4.58s5.73-2 7.17-4.57c1.44 2.58 3.62 4.57 7.17 4.57s5.73-2 7.17-4.57c1.44 2.58 3.62 4.57 7.18 4.57s5.73-2 7.17-4.57c1.44 2.58 3.61 4.57 7.17 4.57s5.73-2 7.17-4.57c1.44 2.58 3.62 4.57 7.17 4.57s5.74-2 7.18-4.57c1.44 2.58 3.61 4.57 7.17 4.57s5.73-2 7.17-4.57c1.44 2.58 3.62 4.57 7.17 4.57s5.74-2 7.18-4.57c1.44 2.57 3.62 4.57 7.18 4.57 4.67 0 7-3.44 8.32-7.12a5.35 5.35 0 00.79-.19 6.31 6.31 0 004.07-7.94zm-173.15-8.2a7.45 7.45 0 00-4.41-1.34c-3.56 0-5.74 2-7.18 4.57-1.43-2.57-3.61-4.57-7.17-4.57s-5.73 2-7.17 4.57c-1.44-2.58-3.62-4.57-7.17-4.57a7.5 7.5 0 00-3.7.9l43-133.06h13.62c-2.43 19.78-12.15 83.94-19.82 133.5zm58 .53a7.34 7.34 0 00-5.07-1.87c-3.56 0-5.73 2-7.17 4.57-1.44-2.57-3.62-4.57-7.18-4.57s-5.73 2-7.17 4.57c-1.44-2.57-3.62-4.57-7.18-4.57s-5.73 2-7.17 4.57c-1.44-2.58-3.61-4.57-7.17-4.57a7.38 7.38 0 00-5.89 2.71c4.81-31 17.21-111.62 20-134.87h34zm-51.48-147L81.32 79.26 99.52 31l12.63 4.55v14a6.31 6.31 0 0012.62 0v-9.44l23.44 8.44a6.38 6.38 0 004.29 0l22.73-8.22v9.3a6.31 6.31 0 1012.62 0V35.76l13.05-4.71 17.8 48.21-14.7 48.86zM200.2 273.22c-3.55 0-5.73 2-7.17 4.57-1.44-2.57-3.62-4.57-7.17-4.57s-5.74 2-7.17 4.57c-1.44-2.57-3.62-4.57-7.18-4.57s-5.73 2-7.17 4.57c-1.44-2.57-3.61-4.57-7.17-4.57a7.34 7.34 0 00-5.08 1.88v-134H186l20.18 135a7.4 7.4 0 00-5.98-2.88zm43 0c-3.56 0-5.74 2-7.18 4.57-1.44-2.57-3.61-4.57-7.17-4.57s-5.73 2-7.17 4.57c-1.44-2.57-3.62-4.57-7.17-4.57a7.44 7.44 0 00-4.34 1.29l-20-133.45h13.67l43 133.07a7.54 7.54 0 00-3.6-.91z"/></svg>