<svg data-name="圖層 1" xmlns="http://www.w3.org/2000/svg" viewBox="0 0 512 512"><path d="M495.13 67.29A124.74 124.74 0 00418.91 8.8a125 125 0 00-95.26 12.54L138 128.54a125.81 125.81 0 00-59.8 135.77l-15.46 8.93a125.53 125.53 0 10125.53 217.42l185.67-107.2a125.63 125.63 0 0059.83-135.8l15.41-8.9a125.52 125.52 0 0045.95-171.47zM261 187.76c1.74-1 3.51-1.94 5.29-2.83.53-.27 1.07-.52 1.6-.77a94.88 94.88 0 014-1.82c.54-.23 1.08-.47 1.63-.69 1.8-.74 3.62-1.44 5.46-2.06h.07c1.86-.63 3.74-1.19 5.63-1.71.56-.16 1.12-.29 1.68-.44 1.41-.36 2.81-.69 4.23-1l1.71-.35c1.88-.36 3.77-.69 5.67-.94h.1c1.94-.25 3.89-.43 5.84-.57l1.71-.1c1.45-.08 2.9-.13 4.36-.14h3.3c1.44 0 2.89.08 4.33.18h.13c1.41.09 2.83.23 4.24.38l1.12.13c1.44.18 2.89.37 4.33.61h.08c1.43.23 2.85.51 4.28.81l1.09.24c1.45.32 2.89.66 4.33 1a99.6 99.6 0 0154.14 36.52l-16.9 9.79a80.52 80.52 0 00-42.27-27.62 81.77 81.77 0 00-21.14-2.8 80.65 80.65 0 00-40.44 10.91L139 280.45l-.88-1.33c-1.09-1.63-1.92-3-2.63-4.19a75.17 75.17 0 01-4.24-8.62l-1.25-2.95zM151.82 302a81.19 81.19 0 0027.92 13.63c1.58.42 3.16.77 4.74 1.1l1.41.27c1.17.22 2.34.41 3.52.58l1.41.2c1.58.2 3.17.37 4.75.47h.12c1.55.1 3.1.14 4.65.15h1.42c1.17 0 2.34-.05 3.5-.12.47 0 .93 0 1.4-.08 1.57-.11 3.14-.26 4.7-.46h.09c1.53-.2 3.06-.46 4.58-.75l1.38-.29c1.15-.24 2.29-.51 3.43-.8l1.34-.35c1.53-.42 3-.87 4.56-1.39 1.5-.51 3-1.08 4.46-1.68l1.3-.56c1.09-.46 2.18-1 3.25-1.47l1.28-.62q2.18-1.08 4.29-2.29l114.75-66.25c.39.53.82 1 1.2 1.59l3.88 5.65 2.38 6.19c.48 1.26.9 2.52 1.28 3.8L251 324.24a99.89 99.89 0 01-50.06 13.5A101 101 0 01134 312.31zm24.62-14.22l106.7-61.6a55.89 55.89 0 0127.9-7.55 56.71 56.71 0 0114.65 2 57.51 57.51 0 019.79 3.62l-106.7 61.6a55.89 55.89 0 01-27.9 7.55 56.58 56.58 0 01-14.64-1.95 57.62 57.62 0 01-9.8-3.66zm-79 45.6l13.9-8A125.31 125.31 0 00263.51 346l102.27-59a56.24 56.24 0 01-26.57 36.4L153.54 430.51a55.89 55.89 0 01-27.9 7.55 56.71 56.71 0 01-14.64-1.95 56.07 56.07 0 01-13.53-102.72zm317-154.78l-13.9 8A125.31 125.31 0 00248.41 166L146 225.14c.18-.8.33-1.61.55-2.41a55.69 55.69 0 0126.12-34L358.38 81.49a55.89 55.89 0 0127.9-7.55 56.71 56.71 0 0114.65 2 56.1 56.1 0 0113.52 102.72zm-6.24 122.15a99.8 99.8 0 01-46.8 61L175.73 468.94A100.45 100.45 0 1175.28 295l32.83-19a101.38 101.38 0 005.65 11.46c1.09 1.9 2.27 3.74 3.47 5.55l-32.3 18.65a81.15 81.15 0 0019.57 148.68c1.57.42 3.15.78 4.73 1.1.47.1.94.18 1.41.27 1.18.22 2.35.42 3.53.58l1.4.2c1.59.2 3.17.37 4.76.47h.11c1.55.1 3.1.14 4.65.15h1.43c1.17 0 2.33-.05 3.5-.12.46 0 .93 0 1.39-.08 1.58-.11 3.15-.25 4.71-.46h.09c1.53-.21 3.06-.47 4.58-.76l1.38-.29c1.14-.24 2.28-.51 3.42-.8l1.35-.35c1.53-.42 3.05-.87 4.56-1.39 1.5-.51 3-1.08 4.46-1.68l1.3-.56c1.09-.46 2.17-.95 3.25-1.47l1.28-.62q2.16-1.08 4.28-2.29L351.75 345A81.27 81.27 0 00387 245.73l16.82-9.73a99.65 99.65 0 014.38 64.75zm75.24-144.7a99.76 99.76 0 01-46.8 61l-9.47 5.47-4.91-7.37-4.09-9.72 8.82-5.09A81.24 81.24 0 00456.7 89.47a80.63 80.63 0 00-49.28-37.81 81.77 81.77 0 00-21.14-2.8 80.65 80.65 0 00-40.44 10.91L160.17 167a81.23 81.23 0 00-40.53 73.42L101.29 251a100.56 100.56 0 0149.23-100.72L336.19 43.06q2.63-1.5 5.3-2.83c.53-.27 1.06-.52 1.59-.77 1.33-.64 2.67-1.25 4-1.82q.81-.36 1.62-.69c1.81-.74 3.63-1.44 5.48-2.07h.05c1.86-.63 3.74-1.19 5.63-1.71.56-.16 1.12-.29 1.68-.44 1.41-.36 2.81-.69 4.23-1l1.71-.35c1.88-.36 3.76-.69 5.65-.94h.13c1.93-.25 3.88-.43 5.82-.57l1.73-.1c1.44-.08 2.89-.13 4.33-.14h3.3c1.46 0 2.91.08 4.37.18h.06c1.44.1 2.87.24 4.31.39l1.08.13c1.46.18 2.91.37 4.36.61h.06c1.43.24 2.86.52 4.29.82l1.09.24c1.45.32 2.89.66 4.33 1.05a100.43 100.43 0 0171 123z" fill="#fff"/></svg>