<svg id="圖層_1" data-name="圖層 1" xmlns="http://www.w3.org/2000/svg" viewBox="0 0 300 300"><defs><style>.cls-1{fill:#000000;}</style></defs><title>工作區域 14</title><path class="cls-1" d="M252.36,48.79l.6-1.16a4.55,4.55,0,0,0-1.86-6.1L245.79,11V6.79a6.85,6.85,0,0,0-6.85-6.85H60.76a6.85,6.85,0,0,0-6.85,6.85v1a7.24,7.24,0,0,0-.22.92L48.2,41.77a4.57,4.57,0,0,0-1.46,5.86l.37.72-6,36.51a7,7,0,0,0,.07,2.62L87.61,294.59a6.86,6.86,0,0,0,6.69,5.35h42.17a6.85,6.85,0,0,0,6.85-6.93L141,98h17l-2.29,195a6.85,6.85,0,0,0,6.85,6.93h42.17a6.85,6.85,0,0,0,6.68-5.33L258.56,87.5a6.77,6.77,0,0,0,.07-2.69ZM171.75,98h11.36a6.85,6.85,0,0,0,0-13.7H116.59a6.85,6.85,0,1,0,0,13.7h10.73l2.21,188.23H116.12L77.18,86.41l8-32.69L101,45.54A4.55,4.55,0,0,0,103.44,41h92.82a4.55,4.55,0,0,0,2.43,4.54l15.79,8.18,8,32.69L183.59,286.24H169.53ZM207,39.53l4.33-8.35,31.47,16.3-4.33,8.36ZM94.43,22.92a4.57,4.57,0,0,0-6.16-2L76.06,27.29H67.62V13.65H232.08V27.29h-8.44L211.43,21a4.57,4.57,0,0,0-6.16,2L203,27.29H96.69Zm-6,8.26,4.33,8.35L61.28,55.84,57,47.48ZM58,66.37a4.83,4.83,0,0,0,1.31.2,4.53,4.53,0,0,0,2.1-.52l19.3-10L73.38,85.91a2.06,2.06,0,0,0,0,.82l38.88,199.51H99.79L54.8,85.78ZM187.46,286.24,226.34,86.73a2.06,2.06,0,0,0,0-.82L219,56.05l19.3,10a4.4,4.4,0,0,0,3.25.36l3.37,19.39L199.3,286.24Z"/></svg>